<svg width="84" height="84" viewBox="0 0 84 84" fill="none" xmlns="http://www.w3.org/2000/svg">
<path d="M29.392 43.256V58.236" stroke="black" stroke-width="1.5" stroke-linecap="round" stroke-linejoin="round"/>
<path d="M37.036 50.748H21.752" stroke="black" stroke-width="1.5" stroke-linecap="round" stroke-linejoin="round"/>
<path d="M55.464 43.712H55.036" stroke="black" stroke-width="1.5" stroke-linecap="round" stroke-linejoin="round"/>
<path d="M62.72 58.012H62.292" stroke="black" stroke-width="1.5" stroke-linecap="round" stroke-linejoin="round"/>
<path d="M26.2887 2C26.2887 4.96193 28.7386 7.36305 31.7607 7.36305H35.9866C40.6491 7.37967 44.4258 11.081 44.447 15.6506V18.3509M59.7133 81.8504C47.6925 82.054 35.8921 82.0457 24.291 81.8504C11.414 81.8504 2 72.6655 2 60.0451V41.4469C2 28.8265 11.414 19.6416 24.291 19.6416C35.9557 19.4422 47.7645 19.4463 59.7133 19.6416C72.5902 19.6416 82 28.8306 82 41.4469V60.0451C82 72.6655 72.5902 81.8504 59.7133 81.8504Z" stroke="black" stroke-width="3" stroke-linecap="round" stroke-linejoin="round"/>
</svg>
