<svg width="80" height="80" viewBox="0 0 80 80" fill="none" xmlns="http://www.w3.org/2000/svg">
<g clip-path="url(#clip0_3_80)">
<path d="M16.6667 60H12.6667C6.98667 60 2.96 56.2633 1.32667 49.48C-0.453333 42.05 -0.453333 37.5267 1.32667 30.1133C2.84333 23.7833 7.72333 20 14.38 20H21.2433C20.8013 20 20.3774 19.8244 20.0648 19.5118C19.7523 19.1993 19.5767 18.7753 19.5767 18.3333V11.93C19.5767 6.04332 21.2967 2.32999 30.0933 0.776655C35.9 -0.253345 42.7667 -0.263345 48.9267 0.756655C54.6433 1.72332 58.3333 6.09999 58.3333 11.9167V29.3533C58.3333 35.1433 54.8967 38.33 48.6533 38.33H30.38C24.8233 38.33 18.3333 41.39 18.3333 50.01V58.3333C18.3333 58.7753 18.1577 59.1993 17.8452 59.5118C17.5326 59.8244 17.1087 60 16.6667 60ZM14.38 23.3333C9.29667 23.3333 5.72 26.0867 4.57 30.8933C2.91 37.79 2.91 41.7867 4.57 48.7033C5.44333 52.3333 7.56 56.6667 12.6667 56.6667H15V50.0133C15 39.6433 22.7233 35 30.38 35H48.6533C53.1 35 55 33.31 55 29.3567V11.9167C55 7.74999 52.4633 4.73332 48.3767 4.04665C42.5767 3.09332 36.1233 3.08999 30.67 4.06332C23.6733 5.29665 22.91 7.51332 22.91 11.93V16.6667H39.54C39.982 16.6667 40.406 16.8423 40.7185 17.1548C41.0311 17.4674 41.2067 17.8913 41.2067 18.3333V21.6667C41.2067 22.1087 41.0311 22.5326 40.7185 22.8452C40.406 23.1577 39.982 23.3333 39.54 23.3333H14.38Z" fill="black"/>
<path d="M31.6667 15.0833C28.91 15.0833 26.6667 12.8267 26.6667 10.05C26.6933 7.26 28.9367 5 31.6667 5C34.4233 5 36.6667 7.26667 36.6667 10.05C36.6667 12.8267 34.4233 15.0833 31.6667 15.0833ZM31.6667 8.33333C31.4433 8.33723 31.2229 8.38521 31.0181 8.47452C30.8133 8.56383 30.6281 8.69271 30.4733 8.85377C30.3184 9.01482 30.1969 9.20487 30.1157 9.41302C30.0344 9.62116 29.9951 9.84329 30 10.0667C30 10.9867 30.7467 11.7533 31.6667 11.7533C32.5867 11.7533 33.3333 10.9867 33.3333 10.05C33.3344 9.60299 33.1607 9.17328 32.8493 8.85256C32.5379 8.53184 32.1135 8.34551 31.6667 8.33333ZM40.56 80C37.3823 80.0058 34.2095 79.7516 31.0733 79.24C25.3567 78.2767 21.6667 73.9 21.6667 68.0833V50.6467C21.6667 44.8567 25.1033 41.67 31.3467 41.67H49.62C55.1767 41.67 61.6667 38.61 61.6667 29.99V21.6667C61.6667 21.2246 61.8423 20.8007 62.1548 20.4882C62.4674 20.1756 62.8913 20 63.3333 20H67.3333C73.0133 20 77.04 23.7367 78.6733 30.52C80.4533 37.95 80.4533 42.4733 78.6733 49.8867C77.1567 56.2167 72.2767 60 65.62 60H42.1267H58.7567C59.1987 60 59.6226 60.1756 59.9352 60.4882C60.2477 60.8007 60.4233 61.2246 60.4233 61.6667V68.07C60.4233 73.9567 58.7033 77.67 49.9067 79.2233C46.9833 79.74 43.7933 80 40.56 80ZM31.3467 45C26.9 45 25 46.69 25 50.6433V68.08C25 72.2467 27.5367 75.2633 31.6233 75.95C37.4233 76.9067 43.8767 76.9033 49.33 75.9333C56.3267 74.7 57.09 72.4833 57.09 68.0667V63.3333H40.46C40.018 63.3333 39.5941 63.1577 39.2815 62.8452C38.9689 62.5326 38.7933 62.1087 38.7933 61.6667V58.3333C38.7933 57.8913 38.9689 57.4674 39.2815 57.1548C39.5941 56.8423 40.018 56.6667 40.46 56.6667H65.62C70.7033 56.6667 74.28 53.9133 75.43 49.1067C77.09 42.21 77.09 38.2133 75.43 31.2967C74.5567 27.6667 72.44 23.3333 67.3333 23.3333H65V29.9867C65 40.3567 57.2767 45 49.62 45H31.3467Z" fill="black"/>
<path d="M48.3333 75C45.5767 75 43.3333 72.7333 43.3333 69.95C43.3333 67.1733 45.5767 64.9133 48.3333 64.9133C51.09 64.9133 53.3333 67.1733 53.3333 69.95C53.3067 72.74 51.0633 75 48.3333 75ZM48.3333 68.25C47.4133 68.25 46.6667 69.0133 46.6667 69.9533C46.6667 70.8833 47.43 71.67 48.3333 71.67C48.5567 71.6661 48.7771 71.6181 48.9819 71.5288C49.1867 71.4395 49.3719 71.3106 49.5268 71.1496C49.6816 70.9885 49.8031 70.7985 49.8843 70.5903C49.9656 70.3822 50.0049 70.16 50 69.9367C50.0009 69.4925 49.8262 69.066 49.514 68.7501C49.2019 68.4341 48.7775 68.2544 48.3333 68.25Z" fill="black"/>
</g>
<defs>
<clipPath id="clip0_3_80">
<rect width="80" height="80" fill="white"/>
</clipPath>
</defs>
</svg>
