<svg width="80" height="80" viewBox="0 0 80 80" fill="none" xmlns="http://www.w3.org/2000/svg">
<path d="M51.376 37.9039C51.0572 37.7828 50.7312 37.6813 50.4 37.5999C50.125 37.5433 49.8568 37.4574 49.6 37.3439C49.5193 37.3154 49.4495 37.2622 49.4007 37.1918C49.3519 37.1215 49.3265 37.0375 49.328 36.9519C49.3273 36.8673 49.3483 36.784 49.3889 36.7098C49.4295 36.6355 49.4884 36.5729 49.56 36.5279C49.7869 36.4027 50.0457 36.3471 50.304 36.3679C50.8057 36.3728 51.2972 36.5108 51.728 36.7679L52.096 35.8639C51.8479 35.7119 51.5782 35.5986 51.296 35.5279C50.9823 35.4477 50.6598 35.4074 50.336 35.4079C49.9254 35.3963 49.5168 35.4699 49.136 35.6239C48.8417 35.7398 48.5884 35.9402 48.408 36.1999C48.2507 36.437 48.1672 36.7154 48.168 36.9999C48.1599 37.2892 48.2533 37.5722 48.432 37.7999C48.6088 37.9992 48.8311 38.1529 49.08 38.2479C49.328 38.3359 49.648 38.4319 50.04 38.5279C50.296 38.5839 50.496 38.6399 50.648 38.6879C50.7821 38.7271 50.9071 38.7924 51.016 38.8799C51.0615 38.9163 51.0981 38.9626 51.1231 39.0153C51.148 39.068 51.1606 39.1256 51.16 39.1839C51.1606 39.2662 51.1385 39.3471 51.0962 39.4176C51.0538 39.4882 50.9929 39.5457 50.92 39.5839C50.6876 39.7013 50.4278 39.7538 50.168 39.7359C49.8584 39.735 49.5508 39.6865 49.256 39.5919C48.9702 39.5045 48.7002 39.3722 48.456 39.1999L48 40.1599C48.2759 40.3571 48.5847 40.5034 48.912 40.5919C49.2966 40.7042 49.6953 40.7608 50.096 40.7599C50.5066 40.7715 50.9152 40.698 51.296 40.5439C51.5916 40.4266 51.8471 40.2266 52.032 39.9679C52.1958 39.7335 52.2825 39.4539 52.28 39.1679C52.2931 38.8765 52.196 38.5909 52.008 38.3679C51.8391 38.1632 51.6219 38.0038 51.376 37.9039Z" fill="black"/>
<path d="M54.288 38.5199H56.68V37.5919H54.288V36.4799H57V35.5199H53.104V40.6719H57.088V39.7119H54.288V38.5199Z" fill="black"/>
<path d="M61.96 35.7759C61.517 35.5408 61.0214 35.4224 60.52 35.4319C60.0161 35.4231 59.5181 35.5415 59.072 35.7759C58.6583 35.9993 58.3107 36.3277 58.064 36.7279C57.8277 37.1451 57.7035 37.6164 57.7035 38.0959C57.7035 38.5754 57.8277 39.0467 58.064 39.4639C58.3107 39.8642 58.6583 40.1925 59.072 40.4159C59.5195 40.6466 60.0165 40.7647 60.52 40.7599C61.021 40.7657 61.5157 40.6475 61.96 40.4159C62.3797 40.191 62.7306 39.8565 62.9752 39.4479C63.2198 39.0394 63.349 38.5721 63.349 38.0959C63.349 37.6197 63.2198 37.1525 62.9752 36.7439C62.7306 36.3354 62.3797 36.0008 61.96 35.7759ZM61.96 38.9759C61.8262 39.2205 61.6267 39.4227 61.384 39.5599C61.1308 39.6965 60.8477 39.7679 60.56 39.7679C60.2723 39.7679 59.9892 39.6965 59.736 39.5599C59.4933 39.4227 59.2938 39.2205 59.16 38.9759C59.0232 38.7113 58.9518 38.4178 58.9518 38.1199C58.9518 37.8221 59.0232 37.5285 59.16 37.2639C59.2938 37.0194 59.4933 36.8171 59.736 36.6799C59.9892 36.5434 60.2723 36.4719 60.56 36.4719C60.8477 36.4719 61.1308 36.5434 61.384 36.6799C61.6267 36.8171 61.8262 37.0194 61.96 37.2639C62.0968 37.5285 62.1682 37.8221 62.1682 38.1199C62.1682 38.4178 62.0968 38.7113 61.96 38.9759Z" fill="black"/>
<path d="M13.992 47.472L17.496 48.808V47.888L15.048 47L17.496 46.096V45.184L13.992 46.52V47.472Z" fill="black"/>
<path d="M17.704 50.304H18.728L21.152 43.376H20.128L17.704 50.304Z" fill="black"/>
<path d="M21.288 46.096L23.736 47L21.288 47.888V48.808L24.784 47.472V46.52L21.288 45.184V46.096Z" fill="black"/>
<path d="M55.672 26.776C53.4331 26.776 51.2445 27.4399 49.383 28.6838C47.5214 29.9276 46.0705 31.6956 45.2137 33.764C44.3569 35.8325 44.1328 38.1086 44.5695 40.3044C45.0063 42.5003 46.0844 44.5173 47.6676 46.1004C49.2507 47.6836 51.2677 48.7617 53.4636 49.1985C55.6595 49.6353 57.9355 49.4111 60.004 48.5543C62.0725 47.6975 63.8404 46.2466 65.0843 44.3851C66.3281 42.5235 66.992 40.3349 66.992 38.096C66.9878 35.095 65.7938 32.2182 63.6718 30.0962C61.5498 27.9742 58.673 26.7802 55.672 26.776ZM55.672 47.816C53.7496 47.816 51.8703 47.2459 50.2719 46.1779C48.6734 45.1098 47.4276 43.5918 46.6919 41.8157C45.9562 40.0396 45.7637 38.0852 46.1388 36.1997C46.5138 34.3142 47.4396 32.5823 48.7989 31.2229C50.1583 29.8636 51.8903 28.9378 53.7757 28.5628C55.6612 28.1877 57.6156 28.3802 59.3917 29.1159C61.1678 29.8516 62.6859 31.0974 63.7539 32.6959C64.822 34.2943 65.392 36.1736 65.392 38.096C65.3899 40.6733 64.3652 43.1443 62.5428 44.9667C60.7204 46.7891 58.2493 47.8139 55.672 47.816Z" fill="black"/>
<path d="M76.84 34.32L70.664 32.952C70.4339 32.3312 70.1668 31.7247 69.864 31.136L73.272 25.8C73.3758 25.65 73.4252 25.4691 73.4121 25.2873C73.399 25.1054 73.3242 24.9335 73.2 24.8L68.968 20.5679C68.8415 20.4453 68.6781 20.3678 68.503 20.3476C68.328 20.3273 68.1512 20.3654 68 20.456L62.664 23.864C62.0587 23.573 61.4362 23.3192 60.8 23.104L59.432 16.928C59.3914 16.7475 59.2895 16.5867 59.1436 16.4729C58.9977 16.3591 58.8169 16.2994 58.632 16.3039H52.68C52.4951 16.2994 52.3143 16.3591 52.1684 16.4729C52.0226 16.5867 51.9207 16.7475 51.88 16.928L50.512 23.104C49.8921 23.321 49.2857 23.5748 48.696 23.864L43.36 20.456C43.2057 20.3573 43.0222 20.3147 42.8402 20.335C42.6582 20.3554 42.4887 20.4376 42.36 20.5679L38.136 24.8C38.0057 24.9286 37.9235 25.0981 37.9031 25.2801C37.8827 25.4621 37.9254 25.6456 38.024 25.8L41.44 31.136C41.1728 31.6763 40.9377 32.2319 40.736 32.8C40.7209 32.8458 40.6947 32.8873 40.6599 32.9208C40.625 32.9543 40.5825 32.9787 40.536 32.992L34.504 34.32C34.3235 34.3606 34.1627 34.4625 34.049 34.6084C33.9352 34.7542 33.8755 34.935 33.88 35.12V41.104C33.8755 41.2889 33.9352 41.4697 34.049 41.6155C34.1627 41.7614 34.3235 41.8633 34.504 41.904L40.536 43.2C40.5825 43.2132 40.625 43.2376 40.6599 43.2711C40.6947 43.3046 40.7209 43.3461 40.736 43.392C40.9394 43.9567 41.1745 44.5096 41.44 45.048L38.024 50.4C37.9254 50.5543 37.8827 50.7378 37.9031 50.9198C37.9235 51.1018 38.0057 51.2713 38.136 51.4L42.4 55.624C42.5287 55.7543 42.6982 55.8365 42.8802 55.8569C43.0622 55.8772 43.2457 55.8346 43.4 55.736L48.736 52.328C49.3225 52.6355 49.9292 52.9028 50.552 53.128L51.92 59.304C51.9607 59.4844 52.0626 59.6452 52.2084 59.759C52.3543 59.8728 52.5351 59.9325 52.72 59.928H58.704C58.8889 59.9325 59.0697 59.8728 59.2156 59.759C59.3614 59.6452 59.4634 59.4844 59.504 59.304L60.8 53.088C61.4228 52.8628 62.0295 52.5955 62.616 52.288L68 55.736C68.1543 55.8346 68.3378 55.8772 68.5198 55.8569C68.7018 55.8365 68.8713 55.7543 69 55.624L73.232 51.3919C73.3554 51.2599 73.4305 51.09 73.445 50.9099C73.4596 50.7298 73.4127 50.55 73.312 50.4L69.904 45.064C70.2068 44.4752 70.4739 43.8687 70.704 43.248L76.88 41.8799C77.0605 41.8393 77.2213 41.7374 77.3351 41.5915C77.4488 41.4457 77.5085 41.2649 77.504 41.08V35.104C77.503 34.9161 77.4359 34.7346 77.3145 34.5913C77.1931 34.4479 77.0251 34.3519 76.84 34.32ZM75.864 40.448L69.872 41.776C69.7332 41.807 69.6051 41.8745 69.501 41.9716C69.397 42.0686 69.3207 42.1916 69.28 42.328C69.022 43.1585 68.6844 43.9622 68.272 44.728C68.2018 44.8496 68.1648 44.9875 68.1648 45.128C68.1648 45.2684 68.2018 45.4063 68.272 45.528L71.584 50.712L68.256 54.04L63.072 50.736C62.9504 50.6657 62.8124 50.6288 62.672 50.6288C62.5316 50.6288 62.3936 50.6657 62.272 50.736C61.5064 51.1465 60.7026 51.4814 59.872 51.736C59.7357 51.7766 59.6127 51.8529 59.5156 51.957C59.4186 52.0611 59.3511 52.1891 59.32 52.328L57.992 58.32H53.32L52 52.296C51.969 52.1571 51.9014 52.029 51.8044 51.925C51.7074 51.8209 51.5844 51.7446 51.448 51.7039C50.616 51.45 49.8119 51.1123 49.048 50.6959C48.9229 50.6317 48.7831 50.6016 48.6427 50.6086C48.5022 50.6156 48.3661 50.6596 48.248 50.736L43.064 54.04L39.728 50.712L43.04 45.528C43.1102 45.4063 43.1472 45.2684 43.1472 45.128C43.1472 44.9875 43.1102 44.8496 43.04 44.728C42.7301 44.1289 42.4627 43.5086 42.24 42.872C42.1365 42.5697 41.9571 42.2991 41.7189 42.0862C41.4808 41.8733 41.1919 41.7251 40.88 41.656L35.48 40.456V35.744L40.88 34.544C41.1919 34.4748 41.4808 34.3266 41.7189 34.1137C41.9571 33.9008 42.1365 33.6302 42.24 33.328C42.4612 32.6907 42.7286 32.0704 43.04 31.472C43.1102 31.3503 43.1472 31.2124 43.1472 31.072C43.1472 30.9315 43.1102 30.7936 43.04 30.672L39.728 25.488L43.064 22.16L48.248 25.464C48.3696 25.5342 48.5076 25.5711 48.648 25.5711C48.7884 25.5711 48.9264 25.5342 49.048 25.464C49.8123 25.0506 50.6164 24.7156 51.448 24.464C51.5844 24.4233 51.7074 24.347 51.8044 24.2429C51.9014 24.1389 51.969 24.0108 52 23.872L53.328 17.88H58.032L59.36 23.872C59.3911 24.0108 59.4586 24.1389 59.5556 24.2429C59.6526 24.347 59.7757 24.4233 59.912 24.464C60.7437 24.7156 61.5477 25.0506 62.312 25.464C62.4336 25.5342 62.5716 25.5711 62.712 25.5711C62.8524 25.5711 62.9904 25.5342 63.112 25.464L68.296 22.16L71.624 25.488L68.312 30.672C68.2418 30.7936 68.2048 30.9315 68.2048 31.072C68.2048 31.2124 68.2418 31.3503 68.312 31.472C68.7244 32.2377 69.062 33.0414 69.32 33.872C69.3607 34.0083 69.437 34.1313 69.5411 34.2283C69.6451 34.3254 69.7732 34.3929 69.912 34.424L75.904 35.752L75.864 40.448ZM19.392 38.4C17.7166 38.3984 16.0785 38.894 14.685 39.8242C13.2915 40.7543 12.2055 42.0771 11.5643 43.6249C10.9232 45.1728 10.7558 46.8761 11.0835 48.5191C11.4111 50.1622 12.219 51.671 13.4048 52.8546C14.5906 54.0381 16.1009 54.8431 17.7446 55.1677C19.3882 55.4922 21.0912 55.3216 22.6379 54.6775C24.1845 54.0335 25.5052 52.9449 26.4327 51.5497C27.3602 50.1544 27.8528 48.5153 27.848 46.84C27.8396 44.6014 26.9454 42.4571 25.361 40.8757C23.7766 39.2942 21.6306 38.4042 19.392 38.4ZM19.392 53.72C18.0341 53.7215 16.7062 53.3203 15.5764 52.567C14.4466 51.8138 13.5655 50.7423 13.0448 49.4882C12.5241 48.2341 12.387 46.8538 12.6509 45.5218C12.9149 44.1898 13.568 42.966 14.5276 42.0052C15.4872 41.0445 16.7103 40.3899 18.042 40.1244C19.3737 39.8589 20.7542 39.9944 22.0089 40.5137C23.2636 41.033 24.3361 41.9127 25.0907 43.0417C25.8452 44.1706 26.248 45.498 26.248 46.856C26.2417 48.6716 25.5171 50.4109 24.2325 51.694C22.9478 52.9771 21.2077 53.6997 19.392 53.7039V53.72Z" fill="black"/>
<path d="M35.624 43.768L31 42.744C30.8532 42.3316 30.6823 41.9282 30.488 41.536L33.04 37.536C33.1366 37.3824 33.1781 37.2006 33.1577 37.0204C33.1374 36.8401 33.0564 36.6721 32.928 36.544L29.728 33.344C29.5999 33.2156 29.4319 33.1346 29.2516 33.1143C29.0714 33.0939 28.8896 33.1354 28.736 33.232L24.736 35.784C24.3315 35.5656 23.9149 35.3706 23.488 35.2L22.464 30.584C22.425 30.402 22.3237 30.2394 22.1777 30.124C22.0317 30.0087 21.8501 29.9478 21.664 29.952H17.104C16.918 29.9478 16.7363 30.0087 16.5903 30.124C16.4443 30.2394 16.343 30.402 16.304 30.584L15.296 35.2C14.881 35.3467 14.475 35.5177 14.08 35.712L10.08 33.16C9.92569 33.0614 9.7422 33.0187 9.5602 33.0391C9.3782 33.0595 9.2087 33.1417 9.08001 33.272L5.88001 36.472C5.75165 36.6001 5.67065 36.7681 5.6503 36.9484C5.62995 37.1286 5.67145 37.3104 5.76801 37.464L8.32001 41.464C8.12801 41.864 7.96001 42.264 7.80801 42.68L3.20001 43.768C3.01955 43.8086 2.85874 43.9105 2.74497 44.0564C2.6312 44.2023 2.57149 44.3831 2.57601 44.568V49.152C2.57149 49.3369 2.6312 49.5177 2.74497 49.6636C2.85874 49.8094 3.01955 49.9113 3.20001 49.952L7.79201 50.96C7.93476 51.3663 8.10036 51.7643 8.28801 52.152L5.73601 56.152C5.6374 56.3063 5.59472 56.4898 5.6151 56.6718C5.63549 56.8538 5.7177 57.0233 5.84801 57.152L9.08801 60.352C9.21768 60.4811 9.38766 60.5618 9.56963 60.5807C9.75161 60.5996 9.93456 60.5556 10.088 60.456L14.088 57.912C14.4845 58.1029 14.8903 58.2738 15.304 58.424L16.328 63.04C16.3687 63.2205 16.4706 63.3812 16.6164 63.495C16.7623 63.6088 16.9431 63.6685 17.128 63.664H21.68C21.8649 63.6685 22.0457 63.6088 22.1916 63.495C22.3374 63.3812 22.4394 63.2205 22.48 63.04L23.504 58.424C23.9184 58.2757 24.3244 58.1048 24.72 57.912L28.72 60.456C28.8727 60.5536 29.054 60.5964 29.2342 60.5775C29.4144 60.5586 29.5829 60.4791 29.712 60.352L32.912 57.152C33.0423 57.0233 33.1245 56.8538 33.1449 56.6718C33.1653 56.4898 33.1226 56.3063 33.024 56.152L30.472 52.152C30.6677 51.7577 30.8387 51.3515 30.984 50.936L35.608 49.912C35.7885 49.8713 35.9493 49.7694 36.0631 49.6236C36.1768 49.4777 36.2365 49.2969 36.232 49.112V44.552C36.2337 44.3719 36.1746 44.1966 36.0642 44.0543C35.9539 43.9121 35.7988 43.8112 35.624 43.768ZM34.648 48.488L30.208 49.472C30.0692 49.503 29.9411 49.5706 29.8371 49.6676C29.733 49.7646 29.6567 49.8876 29.616 50.024C29.4259 50.6475 29.174 51.2505 28.864 51.824C28.7938 51.9456 28.7568 52.0836 28.7568 52.224C28.7568 52.3644 28.7938 52.5024 28.864 52.624L31.312 56.464L29.016 58.8L25.176 56.352C25.0544 56.2818 24.9164 56.2448 24.776 56.2448C24.6356 56.2448 24.4976 56.2818 24.376 56.352C23.8009 56.6585 23.1982 56.9103 22.576 57.104C22.4412 57.1459 22.3198 57.2227 22.2242 57.3267C22.1287 57.4307 22.0624 57.5581 22.032 57.696L21.04 62.096H17.744L16.8 57.664C16.769 57.5251 16.7014 57.3971 16.6044 57.293C16.5074 57.189 16.3844 57.1127 16.248 57.072C15.6098 56.8797 14.9911 56.6279 14.4 56.32C14.2784 56.2498 14.1404 56.2128 14 56.2128C13.8596 56.2128 13.7216 56.2498 13.6 56.32L9.76001 58.768L7.43201 56.464L9.88801 52.632C9.95823 52.5104 9.99519 52.3724 9.99519 52.232C9.99519 52.0916 9.95823 51.9536 9.88801 51.832C9.65264 51.3713 9.45467 50.8924 9.29601 50.4C9.20704 50.1387 9.05198 49.9049 8.84592 49.7212C8.63985 49.5376 8.38978 49.4104 8.12001 49.352L4.12001 48.464V45.192L8.12001 44.312C8.38978 44.2536 8.63985 44.1264 8.84592 43.9427C9.05198 43.7591 9.20704 43.5253 9.29601 43.264C9.46509 42.7809 9.6738 42.3127 9.92001 41.864C9.99023 41.7424 10.0272 41.6044 10.0272 41.464C10.0272 41.3236 9.99023 41.1856 9.92001 41.064L7.46401 37.224L9.80001 34.896L13.6 37.336C13.7216 37.4062 13.8596 37.4432 14 37.4432C14.1404 37.4432 14.2784 37.4062 14.4 37.336C14.9757 37.0308 15.5783 36.779 16.2 36.584C16.3442 36.5516 16.4766 36.4798 16.5825 36.3767C16.6884 36.2737 16.7637 36.1432 16.8 36L17.784 31.56H21.04L22.024 36C22.0544 36.1379 22.1207 36.2653 22.2162 36.3693C22.3118 36.4733 22.4332 36.5501 22.568 36.592C23.1915 36.7821 23.7945 37.034 24.368 37.344C24.4896 37.4142 24.6276 37.4512 24.768 37.4512C24.9084 37.4512 25.0464 37.4142 25.168 37.344L29.008 34.896L31.336 37.224L28.888 41.064C28.8178 41.1856 28.7808 41.3236 28.7808 41.464C28.7808 41.6044 28.8178 41.7424 28.888 41.864C29.1842 42.439 29.4227 43.0419 29.6 43.664C29.6419 43.7988 29.7187 43.9202 29.8227 44.0158C29.9267 44.1113 30.0541 44.1776 30.192 44.208L34.632 45.192L34.648 48.488Z" fill="black"/>
</svg>
