<svg width="80" height="80" viewBox="0 0 80 80" fill="none" xmlns="http://www.w3.org/2000/svg">
<path d="M47.4319 30.1734C47.4305 30.3912 47.4224 30.609 47.4075 30.8263C47.4001 30.9337 47.3888 31.0408 47.3773 31.1479C47.3388 31.5111 47.4242 30.8486 47.3679 31.2078C47.2973 31.6582 47.1826 32.1007 47.0413 32.5338C47.0091 32.6326 46.9733 32.7302 46.9375 32.8277C46.9163 32.8856 46.7826 33.2126 46.921 32.8852C46.8408 33.075 46.7502 33.2602 46.6566 33.4436C46.4548 33.8386 46.2157 34.2136 45.9558 34.5727C45.7518 34.8545 46.1377 34.3475 45.9209 34.6191C45.8573 34.6987 45.7909 34.7761 45.7246 34.8534C45.592 35.0079 45.4514 35.1553 45.3083 35.3001C45.1652 35.445 45.0145 35.5821 44.8615 35.7165C44.785 35.7837 44.7061 35.8482 44.6273 35.9128C44.5094 36.0063 44.5213 35.9977 44.6628 35.8869C44.6084 35.9278 44.5536 35.968 44.4983 36.0075C44.1666 36.2477 43.814 36.458 43.4517 36.6485C43.2694 36.7444 43.0821 36.8303 42.8934 36.9128C43.2185 36.7707 42.8941 36.9071 42.8359 36.9293C42.7063 36.9787 42.5747 37.0225 42.443 37.0655C42.0426 37.1961 41.6309 37.2894 41.216 37.3597C40.8576 37.4204 41.5189 37.3261 41.1562 37.3692C41.0493 37.3819 40.942 37.3906 40.8346 37.3993C40.581 37.4199 40.3263 37.4246 40.072 37.4229C39.8548 37.4216 39.6377 37.4081 39.4212 37.3905C39.3141 37.3812 39.2073 37.3698 39.1007 37.3564C39.4647 37.3997 39.1067 37.3528 39.0425 37.3418C38.5938 37.2658 38.1534 37.1459 37.7228 36.9996C37.6245 36.9663 37.5275 36.9293 37.4305 36.8924C37.1006 36.7668 37.698 37.0125 37.3753 36.8714C37.1867 36.7889 37.0027 36.6964 36.8206 36.6006C36.4282 36.3942 36.0562 36.1508 35.7005 35.8868C35.981 36.0951 35.7051 35.8873 35.6571 35.8482C35.5787 35.7832 35.5014 35.7169 35.4252 35.6493C35.2723 35.5149 35.1265 35.3725 34.9834 35.2277C34.8402 35.0828 34.7048 34.9305 34.5723 34.7761C34.5059 34.6987 34.4423 34.6191 34.3788 34.5395C34.6061 34.8242 34.3284 34.463 34.2887 34.4067C34.0523 34.0719 33.8461 33.7167 33.6598 33.352C33.613 33.2603 33.5695 33.167 33.526 33.0737C33.4996 33.0171 33.3665 32.6928 33.5006 33.0208C33.4089 32.7963 33.3308 32.5665 33.2584 32.3351C33.1326 31.9325 33.0441 31.519 32.9788 31.1025C33.0357 31.4651 32.9814 31.1058 32.9745 31.0411C32.9638 30.9337 32.9551 30.8261 32.9484 30.7184C32.9309 30.4642 32.9294 30.2091 32.9341 29.9544C32.9382 29.7377 32.9543 29.5214 32.9745 29.3057C32.9805 29.2415 33.0313 28.8803 32.9788 29.2443C32.994 29.1391 33.013 29.0346 33.0321 28.93C33.1136 28.483 33.2388 28.0448 33.39 27.6167C33.4245 27.5189 33.4627 27.4225 33.5007 27.3261C33.3709 27.655 33.5002 27.3307 33.5261 27.2732C33.6107 27.0857 33.7055 26.903 33.8034 26.7222C33.9009 26.5421 34.008 26.3673 34.118 26.1946C34.1729 26.1085 34.2309 26.0243 34.2888 25.9403C34.3276 25.8839 34.6031 25.5196 34.3788 25.8075C34.6293 25.4861 34.9077 25.1873 35.2006 24.9046C35.3471 24.7631 35.501 24.6295 35.6571 24.4988C35.7041 24.4594 35.9791 24.2482 35.7005 24.46C35.8088 24.3777 35.9204 24.2998 36.0325 24.2226C36.3702 23.99 36.7281 23.788 37.0952 23.606C37.1878 23.5608 37.2812 23.5173 37.3754 23.4754C37.6964 23.3304 37.1023 23.5841 37.4306 23.4545C37.6565 23.3653 37.8876 23.29 38.1201 23.2203C38.3214 23.1601 38.5258 23.1111 38.7309 23.0657C38.8342 23.0429 38.9384 23.0239 39.0426 23.005C39.1059 22.9934 39.4649 22.9425 39.1008 22.9903C39.5676 22.929 40.0396 22.9146 40.5097 22.9293C40.7259 22.9361 40.9413 22.9549 41.1562 22.9777C41.5194 23.0163 40.8569 22.9308 41.216 22.9871C41.3209 23.0036 41.425 23.0239 41.5291 23.0442C41.9744 23.1311 42.4104 23.2614 42.836 23.4175C42.8939 23.4388 43.2209 23.5725 42.8934 23.434C42.9884 23.4742 43.082 23.5178 43.1754 23.5614C43.3616 23.6482 43.543 23.745 43.7226 23.845C43.9014 23.9446 44.0748 24.0536 44.246 24.1657C44.3315 24.2216 44.4149 24.2805 44.4983 24.3394C44.5482 24.3747 44.8241 24.5861 44.5477 24.3707C44.869 24.6211 45.1678 24.8996 45.4505 25.1925C45.5921 25.3389 45.7256 25.4928 45.8564 25.6489C45.8958 25.696 46.107 25.971 45.8951 25.6923C45.9568 25.7736 46.0157 25.8569 46.0745 25.9403C46.3109 26.275 46.5171 26.6302 46.7034 26.9949C46.7502 27.0866 46.7938 27.1799 46.8373 27.2732C46.8637 27.3299 46.9967 27.6542 46.8626 27.3261C46.9412 27.5184 47.0092 27.7149 47.0736 27.9123C47.2042 28.3127 47.2975 28.7243 47.3679 29.1393C47.4286 29.4977 47.3342 28.8364 47.3773 29.1991C47.39 29.3061 47.3988 29.4134 47.4075 29.5207C47.4252 29.7377 47.4305 29.9557 47.4319 30.1734C47.4366 30.9186 48.0502 31.5406 48.7991 31.5406C49.5409 31.5406 50.1709 30.9187 50.1663 30.1734C50.1423 26.3386 47.8863 22.7034 44.3681 21.1143C40.6901 19.4529 36.4124 20.1368 33.4161 22.8321C30.5341 25.4247 29.4777 29.7056 30.7187 33.3591C31.3201 35.1295 32.4188 36.7413 33.8822 37.9097C35.468 39.1758 37.2994 39.9007 39.314 40.1148C42.0927 40.4101 44.8918 39.3637 46.9473 37.5146C49.004 35.6645 50.149 32.9219 50.1662 30.1734C50.1709 29.4281 49.5408 28.8062 48.799 28.8062C48.0502 28.8062 47.4366 29.4282 47.4319 30.1734Z" fill="black"/>
<path d="M50.0527 39.8145C50.2441 39.9365 50.4321 40.0637 50.6166 40.1958C50.653 40.2219 50.953 40.4524 50.7012 40.2555C50.7903 40.3252 50.8772 40.3977 50.9641 40.4703C51.3403 40.7844 51.6894 41.1301 52.0187 41.4928C52.1709 41.6604 52.315 41.8351 52.4562 42.0119C52.257 41.7623 52.489 42.0603 52.5155 42.0966C52.582 42.1885 52.6469 42.2815 52.7104 42.3755C52.9888 42.783 53.2316 43.2137 53.4505 43.6558C53.5007 43.7586 53.5492 43.8622 53.596 43.9666C53.7547 44.3153 53.4934 43.7069 53.637 44.0629C53.7233 44.2769 53.7991 44.4949 53.8712 44.7141C54.0295 45.1951 54.1448 45.6894 54.2323 46.1879C54.2404 46.2344 54.2955 46.6255 54.2523 46.2933C54.2677 46.4116 54.2791 46.5304 54.2905 46.6492C54.3135 46.8891 54.3243 47.1301 54.3311 47.3709C54.3346 47.4954 54.3338 47.6199 54.3338 47.7443V54.7147C54.3338 54.8031 54.331 54.8469 54.3267 54.9348C54.309 55.2986 54.3837 54.6437 54.3202 54.9978C54.3015 55.1019 54.2729 55.2038 54.2443 55.3055C54.2273 55.3657 54.1008 55.6947 54.2381 55.3702C54.1576 55.5605 54.0509 55.7383 53.937 55.9098C53.7457 56.1977 54.1233 55.694 53.8986 55.9559C53.8097 56.0595 53.71 56.1533 53.6094 56.2451C53.3544 56.4778 53.8451 56.0836 53.5632 56.2836C53.4793 56.3431 53.3901 56.3947 53.3012 56.4462C53.2116 56.498 53.1175 56.5414 53.0237 56.5846C53.3398 56.439 53.0222 56.5708 52.9589 56.5908C52.858 56.6226 52.7545 56.6447 52.6513 56.6667C52.2993 56.7417 52.9513 56.6438 52.5884 56.6733C52.5131 56.6794 52.4365 56.6804 52.361 56.6804H27.9953C27.8988 56.6804 27.8721 56.678 27.7759 56.6733C27.4122 56.6555 28.067 56.7303 27.713 56.6667C27.609 56.648 27.507 56.6194 27.4054 56.5908C27.3385 56.5709 27.2723 56.5489 27.2068 56.5247C27.3719 56.5991 27.3851 56.6046 27.2465 56.5412C27.0593 56.455 26.8851 56.3431 26.7174 56.224C26.9961 56.4219 26.7288 56.2212 26.6794 56.1761C26.6037 56.1071 26.5346 56.0313 26.4657 55.9558C26.233 55.7008 26.6273 56.1915 26.4273 55.9097C26.3677 55.8258 26.3161 55.7365 26.2646 55.6476C26.2127 55.5581 26.1695 55.464 26.1262 55.3701C26.2773 55.6981 26.112 55.2769 26.0915 55.204C26.0628 55.1017 26.044 54.9971 26.0252 54.8927C26.0887 55.2458 26.0357 54.8962 26.0323 54.8258C26.0301 54.7801 26.0305 54.7339 26.0305 54.688V47.986C26.0305 47.6192 26.0323 47.2536 26.055 46.8871C26.0624 46.7673 26.0739 46.6478 26.0854 46.5284C26.0898 46.482 26.1423 46.0871 26.0953 46.419C26.1284 46.1854 26.1732 45.9534 26.2218 45.7226C26.3258 45.2291 26.4732 44.7455 26.6466 44.2723C26.6863 44.1641 26.7295 44.0573 26.7727 43.9505C26.6516 44.2501 26.7997 43.8974 26.8185 43.8561C26.9134 43.6479 27.0184 43.4444 27.1266 43.2428C27.3599 42.8083 27.6302 42.3946 27.9215 41.9969C28.1454 41.6912 27.7488 42.2106 27.9853 41.9149C28.0561 41.8264 28.1297 41.7402 28.2033 41.654C28.3504 41.4816 28.5056 41.3165 28.6633 41.154C28.821 40.9914 28.9864 40.8364 29.1541 40.6842C29.2384 40.6085 29.3239 40.5342 29.4106 40.4612C29.4539 40.4244 29.8348 40.125 29.5771 40.3216C29.7878 40.1608 30.0069 40.0114 30.229 39.8668C30.8523 39.4609 31.1098 38.6626 30.7195 37.9962C30.3566 37.3769 29.4741 37.0987 28.8489 37.5058C25.4288 39.7328 23.296 43.533 23.296 47.632V53.6783C23.296 54.8226 23.3239 55.8731 23.8545 56.9371C24.6225 58.4769 26.3462 59.4149 28.0346 59.4149H52.3531C54.3392 59.4149 56.0691 58.1612 56.7774 56.3282C57.1334 55.4071 57.0683 54.4095 57.0683 53.4417V47.6144C57.0683 45.4973 56.4933 43.403 55.4346 41.5723C54.4655 39.8962 53.0601 38.4917 51.433 37.4535C50.8041 37.0522 49.9277 37.3201 49.5624 37.944C49.1746 38.6058 49.4257 39.4144 50.0527 39.8145ZM68.9247 37.7758C68.9227 37.9919 68.9104 38.2077 68.8878 38.4226C68.9259 38.0598 68.8845 38.4122 68.8723 38.4787C68.8534 38.5821 68.8287 38.6843 68.8041 38.7864C68.7552 38.9885 68.6895 39.1862 68.6184 39.3813C68.4982 39.7113 68.7413 39.1156 68.5976 39.4347C68.5415 39.5593 68.4775 39.6801 68.4124 39.8C68.3154 39.9792 68.2037 40.1501 68.0879 40.3176C67.8909 40.6022 68.2723 40.0948 68.0556 40.3642C67.9921 40.4433 67.9242 40.5188 67.8565 40.5942C67.721 40.7452 67.5735 40.8849 67.4227 41.0203C67.3471 41.088 67.268 41.1517 67.189 41.2153C67.4727 40.987 67.1122 41.259 67.0533 41.2982C66.8833 41.4113 66.7044 41.5104 66.5232 41.6043C66.4321 41.6515 66.3385 41.6937 66.2449 41.7358C66.568 41.5904 66.2486 41.7277 66.188 41.7498C65.9922 41.8212 65.7908 41.8758 65.5884 41.9248C65.4859 41.9494 65.3822 41.9684 65.2787 41.9873C65.1234 42.0118 65.1393 42.0105 65.3264 41.9839C65.2555 41.992 65.1843 41.9987 65.113 42.0043C64.8966 42.0229 64.6788 42.0228 64.4617 42.0166C64.3539 42.0135 64.2464 42.0043 64.1391 41.9951C63.7766 41.964 64.437 42.0455 64.0805 41.9873C63.8733 41.9536 63.6693 41.9023 63.4674 41.8455C63.3675 41.8173 63.2692 41.7836 63.1711 41.7498C63.1061 41.7269 63.0416 41.7027 62.9776 41.6773C63.1452 41.7501 63.1595 41.7556 63.0205 41.6937C62.8339 41.6096 62.6545 41.5103 62.4784 41.4065C62.3907 41.3547 62.3059 41.2982 62.2211 41.2419C62.1695 41.2076 61.8926 41.0002 62.1701 41.2154C61.8224 40.9458 61.5151 40.6272 61.2398 40.2851C61.4591 40.5576 61.2494 40.2862 61.2134 40.2341C61.1554 40.1505 61.102 40.0636 61.0488 39.9769C60.9416 39.8026 60.8489 39.6198 60.7616 39.4348C60.612 39.1183 60.867 39.7091 60.7407 39.3814C60.7034 39.2847 60.6716 39.1861 60.6398 39.0875C60.5647 38.8547 60.5116 38.6154 60.4678 38.3749C60.4029 38.0195 60.4981 38.6781 60.4601 38.3163C60.4488 38.209 60.4437 38.1013 60.4385 37.9937C60.4282 37.7765 60.4364 37.559 60.4509 37.3424C60.4553 37.277 60.5031 36.9169 60.4507 37.2814C60.4657 37.1768 60.4867 37.0732 60.5077 36.9697C60.5559 36.7311 60.6264 36.4976 60.7053 36.2675C60.7258 36.2079 60.8595 35.8835 60.7194 36.2106C60.7598 36.1163 60.8054 36.0243 60.8509 35.9324C60.9415 35.7494 61.047 35.5742 61.157 35.4023C61.2119 35.3166 61.2712 35.234 61.3307 35.1515C61.1274 35.434 61.3272 35.1593 61.3685 35.1097C61.5202 34.928 61.6879 34.7603 61.861 34.5992C61.9353 34.5301 62.0132 34.465 62.0911 34.4001C62.2084 34.3061 62.1964 34.3151 62.0551 34.4272C62.1097 34.3871 62.1651 34.348 62.2212 34.31C62.417 34.1744 62.6247 34.0569 62.8359 33.9474C62.927 33.9002 63.0206 33.858 63.1142 33.8159C62.7778 33.9674 63.2008 33.7917 63.2691 33.7683C63.5333 33.6776 63.806 33.6145 64.0805 33.5644C64.4359 33.4994 63.7773 33.5948 64.1391 33.5567C64.2823 33.5416 64.4265 33.5362 64.5704 33.532C64.8229 33.5248 65.0755 33.5415 65.3265 33.5679C64.9636 33.5297 65.316 33.5712 65.3827 33.5833C65.5203 33.6084 65.6561 33.6426 65.7913 33.678C65.9254 33.7131 66.057 33.7569 66.188 33.8019C66.253 33.8248 66.3175 33.849 66.3815 33.8744C66.2138 33.8015 66.1995 33.7962 66.3386 33.8581C66.5562 33.9561 66.7643 34.0738 66.9675 34.1987C67.0541 34.2519 67.138 34.3099 67.2216 34.3679C67.3429 34.4569 67.332 34.4465 67.189 34.3365C67.2421 34.3784 67.2945 34.4212 67.346 34.4651C67.5277 34.6168 67.6954 34.7844 67.8565 34.9576C67.9487 35.0566 68.0345 35.1613 68.1192 35.2667C67.8909 34.983 68.1629 35.3435 68.2021 35.4024C68.3342 35.6009 68.448 35.8109 68.5538 36.0243C68.5821 36.0816 68.7149 36.4025 68.5813 36.0741C68.6334 36.202 68.677 36.333 68.7194 36.4644C68.7945 36.6972 68.8475 36.9365 68.8913 37.1769C68.9158 37.3322 68.9145 37.3163 68.8879 37.1291C68.896 37.2001 68.9027 37.2712 68.9083 37.3426C68.9206 37.4865 68.9234 37.6312 68.9247 37.7758C68.9318 38.5209 69.5413 39.143 70.2919 39.143C71.0318 39.143 71.6662 38.5211 71.6591 37.7758C71.6401 35.7843 70.7926 33.8413 69.2795 32.5314C67.6441 31.1157 65.5765 30.6061 63.4582 30.9105C61.51 31.1904 59.7848 32.4769 58.7412 34.1079C57.6588 35.799 57.4223 38.0133 58.0351 39.913C58.5459 41.4964 59.6166 42.8214 61.0117 43.714C62.4734 44.6494 64.2122 44.8837 65.901 44.641C69.218 44.1643 71.628 41.0383 71.6591 37.7758C71.6662 37.0305 71.0318 36.4086 70.2919 36.4086C69.5413 36.4086 68.9318 37.0306 68.9247 37.7758Z" fill="black"/>
<path d="M70.8676 44.4662C70.9624 44.5271 71.0563 44.5895 71.1491 44.6534C71.1876 44.6799 71.4844 44.9087 71.2322 44.7097C71.4085 44.8489 71.5745 45.0008 71.7365 45.1563C71.8984 45.3119 72.049 45.479 72.1951 45.6495C72.2257 45.6853 72.4524 45.9823 72.2598 45.7258C72.3499 45.8458 72.4332 45.971 72.5154 46.0966C72.6391 46.286 72.7487 46.484 72.8532 46.6844C72.9057 46.7851 72.9532 46.8883 73.0006 46.9915C72.8649 46.6965 73.0187 47.0414 73.0362 47.0869C73.1183 47.3019 73.1841 47.5227 73.2441 47.7448C73.2744 47.8569 73.299 47.9705 73.3236 48.0839C73.3366 48.1441 73.4135 48.6395 73.3696 48.2992C73.4977 49.2905 73.4196 50.334 73.4196 51.3301V53.7595C73.4196 53.8315 73.4161 53.9032 73.4091 53.9748C73.4363 53.7868 73.4346 53.7694 73.4041 53.9226C73.389 53.9904 73.264 54.3058 73.4046 53.9842C73.3638 54.0775 73.3101 54.1645 73.2566 54.2509C73.0794 54.5379 73.4463 54.0425 73.2197 54.2909C73.1736 54.3415 72.9156 54.5505 73.192 54.342C73.1108 54.4032 73.0216 54.4527 72.933 54.5019C72.6357 54.6668 73.2058 54.4124 72.8801 54.5191C72.8107 54.5419 72.473 54.5958 72.8321 54.5516C72.7669 54.5597 72.6797 54.5622 72.6142 54.5622H60.454C59.7087 54.5622 59.0868 55.184 59.0868 55.9294C59.0868 56.6747 59.7087 57.2965 60.454 57.2965H71.9212C72.8847 57.2965 73.8392 57.2561 74.6528 56.6422C75.5739 55.9472 76.1541 54.9269 76.1541 53.7527V49.364C76.1541 47.6437 75.7231 45.9639 74.7518 44.529C74.0897 43.5512 73.2405 42.7426 72.2479 42.1054C71.6201 41.7023 70.742 41.9734 70.3773 42.5958C69.9886 43.2589 70.2417 44.0644 70.8676 44.4662ZM19.9292 37.7758C19.9272 37.9919 19.9149 38.2077 19.8923 38.4226C19.9305 38.0598 19.8891 38.4122 19.8769 38.4787C19.858 38.5821 19.8333 38.6843 19.8087 38.7864C19.7598 38.9885 19.6941 39.1862 19.623 39.3813C19.5027 39.7113 19.7459 39.1156 19.6021 39.4347C19.546 39.5593 19.482 39.6801 19.417 39.8C19.3199 39.9792 19.2084 40.1501 19.0924 40.3176C18.8955 40.6022 19.277 40.0948 19.0602 40.3642C18.9966 40.4433 18.9288 40.5188 18.8611 40.5942C18.7256 40.7452 18.5781 40.8849 18.4273 41.0203C18.3517 41.088 18.2727 41.1517 18.1936 41.2153C18.4773 40.987 18.1167 41.259 18.0578 41.2982C17.8878 41.4113 17.7089 41.5104 17.5277 41.6043C17.4366 41.6515 17.343 41.6937 17.2495 41.7358C17.5725 41.5904 17.2532 41.7277 17.1926 41.7498C16.9968 41.8212 16.7954 41.8758 16.593 41.9248C16.4905 41.9494 16.3869 41.9684 16.2833 41.9873C16.128 42.0118 16.1439 42.0105 16.3311 41.9839C16.2601 41.992 16.1889 41.9987 16.1177 42.0043C15.9011 42.0229 15.6834 42.0228 15.4664 42.0166C15.3586 42.0135 15.2511 42.0043 15.1437 41.9951C14.7812 41.964 15.4416 42.0455 15.0851 41.9873C14.8779 41.9536 14.674 41.9023 14.4721 41.8455C14.3722 41.8173 14.2739 41.7836 14.1758 41.7498C14.1108 41.7269 14.0463 41.7027 13.9823 41.6773C14.1499 41.7501 14.1643 41.7556 14.0252 41.6937C13.8385 41.6096 13.6592 41.5103 13.4831 41.4065C13.3954 41.3547 13.3105 41.2982 13.2259 41.2419C13.1743 41.2076 12.8973 41.0002 13.1748 41.2154C12.8271 40.9458 12.5198 40.6272 12.2445 40.2851C12.4637 40.5576 12.2541 40.2862 12.2181 40.2341C12.1602 40.1505 12.1068 40.0636 12.0535 39.9769C11.9463 39.8026 11.8537 39.6198 11.7663 39.4348C11.6167 39.1183 11.8718 39.7091 11.7455 39.3814C11.7082 39.2847 11.6764 39.1861 11.6446 39.0875C11.5695 38.8547 11.5165 38.6154 11.4726 38.3749C11.4077 38.0195 11.503 38.6781 11.4648 38.3163C11.4536 38.209 11.4484 38.1013 11.4434 37.9937C11.433 37.7765 11.4412 37.559 11.4557 37.3424C11.4601 37.277 11.5079 36.9169 11.4555 37.2814C11.4705 37.1768 11.4915 37.0732 11.5125 36.9697C11.5607 36.7311 11.6312 36.4976 11.7102 36.2675C11.7306 36.2079 11.8643 35.8835 11.7241 36.2106C11.7645 36.1163 11.8102 36.0243 11.8556 35.9324C11.9463 35.7494 12.0518 35.5742 12.1617 35.4023C12.2166 35.3166 12.276 35.234 12.3354 35.1515C12.1322 35.434 12.3319 35.1593 12.3733 35.1097C12.5249 34.928 12.6927 34.7603 12.8658 34.5992C12.9401 34.5301 13.018 34.465 13.0959 34.4001C13.2132 34.3061 13.2012 34.3151 13.0598 34.4272C13.1145 34.3871 13.1699 34.348 13.2259 34.31C13.4218 34.1744 13.6295 34.0569 13.8407 33.9474C13.9318 33.9002 14.0254 33.858 14.1189 33.8159C13.7825 33.9674 14.2055 33.7917 14.2737 33.7683C14.5379 33.6776 14.8107 33.6145 15.0852 33.5644C15.4405 33.4994 14.782 33.5948 15.1437 33.5567C15.287 33.5416 15.4312 33.5362 15.5751 33.532C15.8276 33.5248 16.0802 33.5415 16.3312 33.5679C15.9683 33.5297 16.3207 33.5712 16.3873 33.5833C16.5249 33.6084 16.6607 33.6426 16.796 33.678C16.9301 33.7131 17.0617 33.7569 17.1927 33.8019C17.2577 33.8248 17.3222 33.849 17.3862 33.8744C17.2186 33.8015 17.2042 33.7962 17.3434 33.8581C17.561 33.9561 17.7691 34.0738 17.9722 34.1987C18.0589 34.2519 18.1427 34.3099 18.2263 34.3679C18.3476 34.4569 18.3367 34.4465 18.1938 34.3365C18.2468 34.3784 18.2992 34.4213 18.3507 34.4651C18.5324 34.6168 18.7002 34.7844 18.8612 34.9576C18.9534 35.0566 19.0392 35.1613 19.1241 35.2667C18.8958 34.983 19.1677 35.3435 19.207 35.4024C19.3391 35.6009 19.4528 35.8109 19.5585 36.0243C19.587 36.0816 19.7196 36.4025 19.5861 36.0741C19.6381 36.202 19.6817 36.333 19.7241 36.4644C19.7991 36.6972 19.8522 36.9365 19.8961 37.1769C19.9205 37.3322 19.9192 37.3163 19.8926 37.1291C19.9007 37.2001 19.9075 37.2712 19.913 37.3426C19.9251 37.4865 19.9278 37.6312 19.9292 37.7758C19.9363 38.5209 20.5458 39.143 21.2964 39.143C22.0363 39.143 22.6707 38.5211 22.6636 37.7758C22.6446 35.7843 21.7971 33.8413 20.2841 32.5314C18.6488 31.1157 16.581 30.6061 14.4627 30.9105C12.5146 31.1904 10.7895 32.4769 9.74578 34.1079C8.66352 35.799 8.42695 38.0133 9.03977 39.913C9.55055 41.4964 10.6212 42.8214 12.0163 43.714C13.478 44.6494 15.2168 44.8837 16.9056 44.641C20.2226 44.1643 22.6326 41.0383 22.6637 37.7758C22.6708 37.0305 22.0364 36.4086 21.2965 36.4086C20.5457 36.4086 19.9363 37.0306 19.9292 37.7758ZM19.9105 54.5619H7.79992C7.68578 54.5619 7.35102 54.5112 7.68633 54.5693C7.58375 54.5515 7.48453 54.519 7.38594 54.4867C7.70328 54.5907 7.41508 54.4927 7.34219 54.4523C7.27812 54.4168 7.02773 54.2121 7.29047 54.4301C7.22977 54.3798 6.94883 54.0483 7.16477 54.3344C7.10352 54.2532 7.05406 54.164 7.00492 54.0755C6.84 53.7782 7.09437 54.3482 6.98766 54.0226C6.96492 53.9532 6.91094 53.6155 6.95516 53.9746C6.94766 53.9136 6.94461 53.8187 6.94461 53.7576V49.1342C6.94461 48.8926 6.95906 48.652 6.98195 48.4116C7.01953 48.0169 6.93414 48.6934 6.99836 48.305C7.0175 48.189 7.04258 48.0742 7.06766 47.9594C7.11734 47.7321 7.1843 47.5088 7.25672 47.288C7.29266 47.1783 7.33414 47.0707 7.37555 46.963C7.25828 47.2677 7.44391 46.82 7.47008 46.7658C7.56937 46.5607 7.68391 46.3633 7.80297 46.169C7.86234 46.0723 7.92641 45.9785 7.99047 45.8848C8.01594 45.8474 8.24437 45.5468 8.04742 45.798C8.35008 45.412 8.70203 45.0667 9.07844 44.7533C9.3682 44.5119 8.85617 44.9137 9.16133 44.6915C9.25305 44.6248 9.34805 44.5626 9.44289 44.5004C10.0649 44.0928 10.3245 43.2976 9.93336 42.6298C9.57133 42.0119 8.6868 41.7305 8.06281 42.1394C6.25695 43.3227 4.93008 45.1206 4.43086 47.2326C4.15469 48.4006 4.21008 49.6026 4.21008 50.7922V53.744C4.21008 55.7052 5.83852 57.2964 7.78883 57.2964H19.9102C20.6555 57.2964 21.2774 56.6745 21.2774 55.9292C21.2774 55.1839 20.6557 54.5619 19.9105 54.5619Z" fill="black"/>
</svg>
