<svg width="80" height="80" viewBox="0 0 80 80" fill="none" xmlns="http://www.w3.org/2000/svg">
<g clip-path="url(#clip0_3_131)">
<path d="M30 45C30 44.3369 30.2634 43.7011 30.7322 43.2322C31.2011 42.7634 31.8369 42.5 32.5 42.5H47.5C48.163 42.5 48.7989 42.7634 49.2677 43.2322C49.7366 43.7011 50 44.3369 50 45C50 45.663 49.7366 46.2989 49.2677 46.7677C48.7989 47.2366 48.163 47.5 47.5 47.5H32.5C31.8369 47.5 31.2011 47.2366 30.7322 46.7677C30.2634 46.2989 30 45.663 30 45ZM19.27 20.73C19.0375 20.4975 18.7616 20.3132 18.4579 20.1874C18.1542 20.0616 17.8287 19.9968 17.5 19.9968C17.1713 19.9968 16.8458 20.0616 16.5421 20.1874C16.2384 20.3132 15.9624 20.4975 15.73 20.73C15.4975 20.9624 15.3132 21.2384 15.1874 21.5421C15.0616 21.8458 14.9968 22.1713 14.9968 22.5C14.9968 22.8287 15.0616 23.1542 15.1874 23.4579C15.3132 23.7616 15.4975 24.0375 15.73 24.27L23.965 32.5L15.73 40.73C15.4975 40.9624 15.3132 41.2384 15.1874 41.5421C15.0616 41.8458 14.9968 42.1713 14.9968 42.5C14.9968 42.8287 15.0616 43.1542 15.1874 43.4579C15.3132 43.7616 15.4975 44.0375 15.73 44.27C16.1994 44.7394 16.8361 45.0031 17.5 45.0031C17.8287 45.0031 18.1542 44.9384 18.4579 44.8126C18.7616 44.6868 19.0375 44.5024 19.27 44.27L29.27 34.27C29.5028 34.0378 29.6875 33.7619 29.8135 33.4582C29.9396 33.1544 30.0045 32.8288 30.0045 32.5C30.0045 32.1711 29.9396 31.8455 29.8135 31.5418C29.6875 31.2381 29.5028 30.9622 29.27 30.73L19.27 20.73Z" fill="black"/>
<path d="M10 5C7.34784 5 4.8043 6.05357 2.92893 7.92893C1.05357 9.8043 0 12.3478 0 15L0 65C0 67.6522 1.05357 70.1957 2.92893 72.0711C4.8043 73.9464 7.34784 75 10 75H70C72.6522 75 75.1957 73.9464 77.0711 72.0711C78.9464 70.1957 80 67.6522 80 65V15C80 12.3478 78.9464 9.8043 77.0711 7.92893C75.1957 6.05357 72.6522 5 70 5H10ZM70 10C71.3261 10 72.5979 10.5268 73.5355 11.4645C74.4732 12.4021 75 13.6739 75 15V65C75 66.3261 74.4732 67.5979 73.5355 68.5355C72.5979 69.4732 71.3261 70 70 70H10C8.67392 70 7.40215 69.4732 6.46447 68.5355C5.52678 67.5979 5 66.3261 5 65V15C5 13.6739 5.52678 12.4021 6.46447 11.4645C7.40215 10.5268 8.67392 10 10 10H70Z" fill="black"/>
</g>
<defs>
<clipPath id="clip0_3_131">
<rect width="80" height="80" fill="white"/>
</clipPath>
</defs>
</svg>
